<svg width="104" height="70" viewBox="0 0 104 70" fill="none" xmlns="http://www.w3.org/2000/svg">
<g opacity="0.9">
<path d="M90.6572 14.9394C90.2126 15.0021 89.7608 15.0255 89.3018 15.0095C85.3425 14.8676 82.2302 11.7255 82.3624 8.00641C82.428 6.19455 83.2425 4.52075 84.6576 3.2948C86.0568 2.08237 87.8785 1.45104 89.7862 1.52088C93.7455 1.66285 96.8579 4.80489 96.7256 8.52398C96.66 10.3358 95.8455 12.0097 94.4306 13.2372C93.3677 14.1569 92.0607 14.7415 90.6572 14.9394ZM88.6536 3.14756C87.5491 3.30333 86.5228 3.76116 85.6903 4.48375C84.6088 5.42058 83.9862 6.69292 83.9375 8.06346C83.8345 10.915 86.2677 13.3266 89.3593 13.4376C90.8675 13.4896 92.3038 12.9981 93.3993 12.0464C94.4807 11.1096 95.1034 9.83725 95.1521 8.46671C95.2551 5.61514 92.8221 3.20518 89.7303 3.09255C89.3651 3.07789 89.0049 3.09801 88.6536 3.14756Z" fill="url(#paint0_linear_452_63)" fill-opacity="0.2"/>
<path d="M69.857 61.2988C69.4203 61.3604 68.9719 61.3849 68.5129 61.369C64.5536 61.227 61.4412 58.085 61.5735 54.3659C61.7074 50.6466 65.0355 47.7323 68.997 47.8787C72.9563 48.0207 76.0687 51.1628 75.9364 54.8819C75.8192 58.1696 73.2004 60.8273 69.857 61.2988ZM67.8757 49.5055C65.2744 49.8723 63.2403 51.9037 63.1499 54.4211C63.047 57.2727 65.4802 59.6842 68.5718 59.7953C71.6678 59.9041 74.2634 57.6773 74.3662 54.8242C74.4691 51.9726 72.0359 49.561 68.9443 49.45C68.5794 49.4369 68.2223 49.4566 67.8757 49.5055Z" fill="url(#paint1_linear_452_63)" fill-opacity="0.2"/>
<path d="M43.433 30.5277C43.3146 33.8188 40.3552 36.3841 36.8239 36.256C33.2928 36.1295 30.5249 33.3585 30.6433 30.0674C30.7617 26.7763 33.7211 24.211 37.2524 24.3391C40.7834 24.4656 43.5514 27.2366 43.433 30.5277Z" fill="url(#paint2_linear_452_63)" fill-opacity="0.2"/>
<path d="M38.151 36.9727C37.7063 37.0354 37.2546 37.0588 36.7956 37.0428C34.8881 36.9746 33.1173 36.2157 31.8075 34.9044C30.4845 33.5789 29.7906 31.8516 29.8562 30.0397C29.9218 28.2279 30.7363 26.554 32.1514 25.3281C33.5506 24.1157 35.3725 23.4859 37.28 23.5542C41.2393 23.6961 44.3516 26.8382 44.2194 30.5573C44.1538 32.3692 43.3392 34.043 41.9242 35.2689C40.8597 36.1888 39.5529 36.775 38.151 36.9727ZM36.1458 25.1811C35.0413 25.3369 34.015 25.7947 33.1823 26.5157C32.1008 27.4525 31.478 28.7233 31.4294 30.0954C31.3791 31.4662 31.9096 32.7792 32.9207 33.7921C33.9467 34.819 35.3427 35.4145 36.8513 35.4696C38.3594 35.5215 39.7942 35.0303 40.8913 34.0784C41.9727 33.1415 42.5956 31.8708 42.6441 30.4986C42.747 27.6471 40.3138 25.2355 37.2223 25.1245C36.8591 25.1127 36.4986 25.1313 36.1458 25.1811Z" fill="url(#paint3_linear_452_63)" fill-opacity="0.2"/>
<path d="M15.5405 67.9468C15.1038 68.0084 14.6554 68.0329 14.1965 68.017C10.2372 67.875 7.12477 64.733 7.25705 61.0139C7.39091 57.2946 10.7193 54.3818 14.6806 54.5268C18.6399 54.6687 21.7523 57.8108 21.62 61.5299C21.5011 64.8178 18.8824 67.4755 15.5405 67.9468ZM13.5577 56.1537C10.9564 56.5206 8.92224 58.552 8.83188 61.0693C8.72895 63.9209 11.1622 66.3325 14.2537 66.4435C17.3484 66.5541 19.9454 64.3255 20.0481 61.4724C20.151 58.6208 17.7178 56.2092 14.6263 56.0982C14.2613 56.0851 13.9042 56.1048 13.5577 56.1537Z" fill="url(#paint4_linear_452_63)" fill-opacity="0.2"/>
<path d="M71.8917 49.3392C71.7492 49.3592 71.5981 49.3402 71.4567 49.2762C71.0602 49.0965 70.8848 48.6307 71.0645 48.2342L86.7312 13.7018C86.9109 13.3053 87.3767 13.1299 87.7735 13.3111C88.17 13.4908 88.3454 13.9567 88.1658 14.3532L72.499 48.8855C72.3831 49.1391 72.1496 49.3028 71.8917 49.3392Z" fill="url(#paint5_linear_452_63)" fill-opacity="0.2"/>
<path d="M63.2545 52.2464C63.0472 52.2756 62.8299 52.2223 62.6537 52.0826L41.4695 35.2175C41.1294 34.9459 41.0726 34.452 41.3442 34.1119C41.6142 33.7721 42.1097 33.7151 42.4497 33.9867L63.634 50.8518C63.974 51.1233 64.0308 51.6172 63.7592 51.9573C63.629 52.1209 63.446 52.2194 63.2545 52.2464Z" fill="url(#paint6_linear_452_63)" fill-opacity="0.2"/>
<path d="M17.6461 56.392C17.4451 56.4204 17.2332 56.3712 17.0579 56.2377C16.7124 55.9734 16.6459 55.4793 16.9102 55.1338L32.3338 34.9533C32.5981 34.6078 33.0923 34.5413 33.4378 34.8057C33.7833 35.07 33.8498 35.5641 33.5852 35.9081L18.1617 56.0885C18.0312 56.2619 17.8439 56.3641 17.6461 56.392Z" fill="url(#paint7_linear_452_63)" fill-opacity="0.2"/>
</g>
<defs>
<linearGradient id="paint0_linear_452_63" x1="83.265" y1="14.0413" x2="98.9671" y2="6.90756" gradientUnits="userSpaceOnUse">
<stop stop-color="#3157EF"/>
<stop offset="1" stop-color="#B666E7"/>
</linearGradient>
<linearGradient id="paint1_linear_452_63" x1="62.4758" y1="60.3993" x2="78.1778" y2="53.2654" gradientUnits="userSpaceOnUse">
<stop stop-color="#3157EF"/>
<stop offset="1" stop-color="#B666E7"/>
</linearGradient>
<linearGradient id="paint2_linear_452_63" x1="31.443" y1="35.4086" x2="45.4021" y2="29.032" gradientUnits="userSpaceOnUse">
<stop stop-color="#3157EF"/>
<stop offset="1" stop-color="#B666E7"/>
</linearGradient>
<linearGradient id="paint3_linear_452_63" x1="30.7571" y1="36.0749" x2="46.4605" y2="28.9397" gradientUnits="userSpaceOnUse">
<stop stop-color="#3157EF"/>
<stop offset="1" stop-color="#B666E7"/>
</linearGradient>
<linearGradient id="paint4_linear_452_63" x1="8.15939" y1="67.0473" x2="23.8612" y2="59.9133" gradientUnits="userSpaceOnUse">
<stop stop-color="#3157EF"/>
<stop offset="1" stop-color="#B666E7"/>
</linearGradient>
<linearGradient id="paint5_linear_452_63" x1="70.6713" y1="44.6943" x2="96.3234" y2="36.2126" gradientUnits="userSpaceOnUse">
<stop stop-color="#3157EF"/>
<stop offset="1" stop-color="#B666E7"/>
</linearGradient>
<linearGradient id="paint6_linear_452_63" x1="43.8225" y1="51.9414" x2="66.3759" y2="42.4512" gradientUnits="userSpaceOnUse">
<stop stop-color="#3157EF"/>
<stop offset="1" stop-color="#B666E7"/>
</linearGradient>
<linearGradient id="paint7_linear_452_63" x1="16.6839" y1="53.7443" x2="38.3987" y2="44.1924" gradientUnits="userSpaceOnUse">
<stop stop-color="#3157EF"/>
<stop offset="1" stop-color="#B666E7"/>
</linearGradient>
</defs>
</svg>
