<svg width="104" height="70" viewBox="0 0 104 70" fill="none" xmlns="http://www.w3.org/2000/svg">
<g opacity="0.9">
<path d="M90.6572 14.9335C90.2126 14.9963 89.7608 15.0196 89.3018 15.0037C85.3425 14.8617 82.2302 11.7196 82.3624 8.00055C82.428 6.18869 83.2425 4.51489 84.6576 3.28894C86.0568 2.07651 87.8785 1.44518 89.7862 1.51502C93.7455 1.65699 96.8579 4.79903 96.7256 8.51812C96.66 10.33 95.8455 12.0038 94.4306 13.2313C93.3677 14.151 92.0607 14.7356 90.6572 14.9335ZM88.6536 3.1417C87.5491 3.29747 86.5228 3.75531 85.6903 4.47789C84.6088 5.41472 83.9862 6.68706 83.9375 8.0576C83.8345 10.9092 86.2677 13.3207 89.3593 13.4318C90.8675 13.4837 92.3038 12.9923 93.3993 12.0406C94.4807 11.1037 95.1034 9.83139 95.1521 8.46085C95.2551 5.60928 92.8221 3.19932 89.7303 3.08669C89.3651 3.07203 89.0049 3.09216 88.6536 3.1417Z" fill="url(#paint0_linear_2692_7453)" fillOpacity="0.2"/>
<path d="M69.857 61.294C69.4203 61.3556 68.9719 61.3801 68.5129 61.3641C64.5536 61.2221 61.4412 58.0801 61.5735 54.361C61.7074 50.6417 65.0355 47.7274 68.997 47.8739C72.9563 48.0158 76.0687 51.1579 75.9364 54.877C75.8192 58.1647 73.2004 60.8224 69.857 61.294ZM67.8757 49.5006C65.2744 49.8675 63.2403 51.8989 63.1499 54.4162C63.047 57.2678 65.4802 59.6794 68.5718 59.7904C71.6678 59.8992 74.2634 57.6724 74.3662 54.8193C74.4691 51.9677 72.0359 49.5561 68.9443 49.4451C68.5794 49.432 68.2223 49.4517 67.8757 49.5006Z" fill="url(#paint1_linear_2692_7453)" fillOpacity="0.2"/>
<path d="M43.431 30.5306C43.3126 33.8217 40.3533 36.3871 36.822 36.259C33.2909 36.1325 30.5229 33.3614 30.6413 30.0703C30.7597 26.7792 33.7191 24.2139 37.2504 24.342C40.7815 24.4685 43.5494 27.2395 43.431 30.5306Z" fill="url(#paint2_linear_2692_7453)" fillOpacity="0.2"/>
<path d="M38.149 36.9717C37.7044 37.0344 37.2526 37.0578 36.7936 37.0418C34.8862 36.9736 33.1153 36.2147 31.8056 34.9035C30.4825 33.5779 29.7886 31.8506 29.8542 30.0387C29.9198 28.2269 30.7344 26.5531 32.1494 25.3271C33.5486 24.1147 35.3705 23.4849 37.278 23.5532C41.2373 23.6952 44.3497 26.8372 44.2174 30.5563C44.1518 32.3682 43.3373 34.042 41.9222 35.2679C40.8578 36.1878 39.551 36.774 38.149 36.9717ZM36.1438 25.1801C35.0393 25.3359 34.013 25.7937 33.1803 26.5147C32.0989 27.4515 31.476 28.7223 31.4275 30.0944C31.3771 31.4652 31.9077 32.7782 32.9187 33.7911C33.9447 34.818 35.3407 35.4135 36.8493 35.4686C38.3575 35.5206 39.7923 35.0293 40.8893 34.0774C41.9708 33.1406 42.5936 31.8698 42.6421 30.4977C42.7451 27.6461 40.3119 25.2345 37.2203 25.1235C36.8572 25.1118 36.4967 25.1303 36.1438 25.1801Z" fill="url(#paint3_linear_2692_7453)" fillOpacity="0.2"/>
<path d="M15.5386 67.9419C15.1019 68.0035 14.6535 68.0281 14.1945 68.0121C10.2352 67.8701 7.12282 64.7281 7.2551 61.009C7.38895 57.2897 10.7173 54.377 14.6787 54.5219C18.6379 54.6638 21.7503 57.8059 21.618 61.525C21.4992 64.8129 18.8804 67.4706 15.5386 67.9419ZM13.5558 56.1488C10.9544 56.5157 8.92029 58.5471 8.82993 61.0645C8.72699 63.916 11.1602 66.3276 14.2518 66.4386C17.3465 66.5492 19.9434 64.3206 20.0462 61.4675C20.1491 58.6159 17.7159 56.2043 14.6243 56.0933C14.2594 56.0802 13.9023 56.0999 13.5558 56.1488Z" fill="url(#paint4_linear_2692_7453)" fillOpacity="0.2"/>
<path d="M71.8917 49.3372C71.7492 49.3573 71.5981 49.3383 71.4567 49.2743C71.0602 49.0946 70.8848 48.6287 71.0645 48.2322L86.7312 13.6999C86.9109 13.3034 87.3767 13.1279 87.7735 13.3092C88.17 13.4889 88.3454 13.9547 88.1658 14.3512L72.499 48.8836C72.3831 49.1372 72.1496 49.3008 71.8917 49.3372Z" fill="url(#paint5_linear_2692_7453)" fillOpacity="0.2"/>
<path d="M63.2545 52.2434C63.0472 52.2727 62.8299 52.2194 62.6537 52.0796L41.4695 35.2145C41.1294 34.943 41.0726 34.4491 41.3442 34.109C41.6142 33.7691 42.1097 33.7122 42.4497 33.9837L63.634 50.8488C63.974 51.1204 64.0308 51.6143 63.7592 51.9544C63.629 52.118 63.446 52.2164 63.2545 52.2434Z" fill="url(#paint6_linear_2692_7453)" fillOpacity="0.2"/>
<path d="M17.6441 56.3852C17.4432 56.4135 17.2313 56.3643 17.0559 56.2309C16.7104 55.9666 16.6439 55.4724 16.9083 55.1269L32.3318 34.9465C32.5962 34.601 33.0903 34.5345 33.4358 34.7988C33.7814 35.0632 33.8478 35.5573 33.5832 35.9012L18.1597 56.0817C18.0292 56.255 17.8419 56.3573 17.6441 56.3852Z" fill="url(#paint7_linear_2692_7453)" fillOpacity="0.2"/>
</g>
<defs>
<linearGradient id="paint0_linear_2692_7453" x1="83.265" y1="14.0355" x2="98.9671" y2="6.9017" gradientUnits="userSpaceOnUse">
<stop stopColor="#3157EF"/>
<stop offset="1" stopColor="#B666E7"/>
</linearGradient>
<linearGradient id="paint1_linear_2692_7453" x1="62.4758" y1="60.3944" x2="78.1778" y2="53.2605" gradientUnits="userSpaceOnUse">
<stop stopColor="#3157EF"/>
<stop offset="1" stopColor="#B666E7"/>
</linearGradient>
<linearGradient id="paint2_linear_2692_7453" x1="31.441" y1="35.4115" x2="45.4001" y2="29.035" gradientUnits="userSpaceOnUse">
<stop stopColor="#3157EF"/>
<stop offset="1" stopColor="#B666E7"/>
</linearGradient>
<linearGradient id="paint3_linear_2692_7453" x1="30.7551" y1="36.074" x2="46.4586" y2="28.9387" gradientUnits="userSpaceOnUse">
<stop stopColor="#3157EF"/>
<stop offset="1" stopColor="#B666E7"/>
</linearGradient>
<linearGradient id="paint4_linear_2692_7453" x1="8.15743" y1="67.0424" x2="23.8593" y2="59.9084" gradientUnits="userSpaceOnUse">
<stop stopColor="#3157EF"/>
<stop offset="1" stopColor="#B666E7"/>
</linearGradient>
<linearGradient id="paint5_linear_2692_7453" x1="70.6713" y1="44.6923" x2="96.3234" y2="36.2107" gradientUnits="userSpaceOnUse">
<stop stopColor="#3157EF"/>
<stop offset="1" stopColor="#B666E7"/>
</linearGradient>
<linearGradient id="paint6_linear_2692_7453" x1="43.8225" y1="51.9385" x2="66.3759" y2="42.4483" gradientUnits="userSpaceOnUse">
<stop stopColor="#3157EF"/>
<stop offset="1" stopColor="#B666E7"/>
</linearGradient>
<linearGradient id="paint7_linear_2692_7453" x1="16.6819" y1="53.7375" x2="38.3968" y2="44.1856" gradientUnits="userSpaceOnUse">
<stop stopColor="#3157EF"/>
<stop offset="1" stopColor="#B666E7"/>
</linearGradient>
</defs>
</svg>
