<svg width="97" height="103" viewBox="0 0 97 103" fill="none" xmlns="http://www.w3.org/2000/svg">
<g opacity="0.3">
<path d="M46.9338 73.6322C45.9564 71.4431 44.5371 69.4454 42.7646 67.7621C41.8507 66.8948 40.8364 66.1046 39.668 65.539C38.4657 64.9564 37.1299 64.6237 35.8655 64.1545C31.8714 62.6738 28.5977 59.7789 26.8347 56.1672C25.448 53.3254 23.8055 50.2279 23.5662 47.0579C23.3906 44.7284 25.0044 37.4821 26.5668 34.8777C29.0862 30.6749 33.7225 26.9975 38.306 24.72C42.8909 22.443 48.231 21.5485 53.145 22.4134C59.4876 23.5286 64.8695 27.5805 67.5916 32.8937C70.3136 38.2069 70.4252 44.6608 68.24 50.4705C67.3343 52.8777 66.0582 55.175 65.1601 57.5841C63.9044 60.9551 63.4121 64.5146 63.6588 67.828C61.7868 68.8494 59.7535 69.5575 57.7329 70.2588C56.0244 70.8515 54.3173 71.4449 52.6087 72.0377C50.7842 72.67 48.9581 73.3041 46.9338 73.6322Z" fill="white"/>
<path d="M46.0721 74.3622C52.3864 72.7423 58.5683 70.5613 64.4994 67.8585C66.4843 72.4011 67.8201 75.1309 68.0125 80.123C68.1068 82.5612 67.6679 85.2275 65.8293 87.1057C63.6483 89.3327 60.1733 89.8323 57.0214 90.1394C55.8002 90.2581 54.5335 90.3661 53.4061 89.9995C51.0963 89.2485 50.1303 86.8316 49.4156 84.6674C48.0237 80.4589 47.3087 78.1718 46.0721 74.3622Z" fill="#B666E7"/>
<g opacity="0.1294">
<path d="M68.7709 34.7863C68.1277 34.4941 67.264 34.9103 67.1016 35.5797C67.0404 36.217 67.0331 35.9192 67.1956 36.7504C67.2195 36.858 67.241 36.9653 67.2628 37.0735C67.302 37.4158 67.4313 38.5486 67.4257 38.8161C67.4682 38.4556 67.4677 38.4708 67.4223 38.8625C67.29 41.1971 67.3178 41.8531 66.8302 43.8731C66.723 44.4454 66.5958 45.7194 65.9981 47.1658C65.3346 49.0251 63.0595 52.8741 62.0293 55.8805C61.7196 56.7409 61.0532 58.6811 60.9765 59.0038C60.9735 59.0118 60.9722 59.0146 60.9692 59.0227C60.5548 60.0637 60.1319 61.11 59.9217 62.194C59.5299 64.3775 59.6119 64.3139 59.4193 65.8603C59.3511 66.8734 59.1327 68.2143 59.5005 69.0986C59.5317 69.1676 59.5711 69.2268 59.6108 69.2871C59.444 69.9372 59.5299 70.6399 59.9973 71.2862C61.2103 72.8624 61.9321 74.9314 62.9375 78.2552C63.9628 81.7113 63.7297 80.3297 63.8269 83.7421C63.78 85.4124 63.8652 84.3885 63.5591 86.1035C63.4899 86.5233 63.3057 86.9557 63.4394 87.3656C63.5689 88.3012 64.3483 88.7728 65.1904 88.8095C65.3427 88.6457 65.4866 88.4745 65.6161 88.2921C66.19 87.4838 66.743 86.6654 67.3423 85.8701C67.6413 85.4739 67.9414 85.0773 68.2345 84.6773C68.4584 83.2464 68.4254 81.784 68.3105 80.3759C67.8618 77.4083 67.8132 76.8282 67.2661 73.5809C67.0171 72.1771 66.4589 70.86 65.8678 69.5718C65.4413 68.7778 65.0908 67.811 64.2072 67.3691C64.2072 67.3691 64.2033 67.3681 64.2016 67.3664C64.0365 67.4477 63.8728 67.5296 63.7073 67.6098C63.4221 67.7484 63.1329 67.8826 62.8427 68.0136C62.7814 63.6446 63.0653 61.1117 64.3965 57.408C65.3435 55.1939 66.5135 53.0533 67.5763 50.8785C68.6147 48.8979 69.4198 46.8079 69.8522 44.6739C69.9975 43.237 69.9429 43.3884 70.0046 42.3636C70.0147 42.1977 69.9885 42.4168 69.9744 42.5482C70.0365 42.0323 70.0775 41.5157 70.1116 40.9993C70.1804 40.1992 70.1052 39.4081 69.9737 38.6286C69.9747 38.6248 69.9745 38.6144 69.972 38.5909C69.756 37.0433 69.795 35.3109 68.7709 34.7863Z" fill="#B666E7"/>
</g>
<g opacity="0.1294">
<path d="M59.3777 66.1586C59.3911 66.0518 59.4041 65.9533 59.416 65.8587C59.4182 65.8219 59.4217 65.7824 59.4242 65.7468C59.4078 65.8847 59.3934 66.022 59.3777 66.1586Z" fill="#B666E7"/>
</g>
<path d="M62.6187 90.0416C61.7001 90.3646 60.8692 90.5641 60.2853 90.6813C58.3406 91.0706 53.5319 91.6658 50.9015 88.7766C49.9477 87.7297 49.47 86.3912 49.0482 85.2117C48.2899 83.0883 47.6996 81.4461 47.1104 79.8036C46.5208 78.1601 45.9305 76.518 45.1718 74.3935C45.1196 74.2483 45.1329 74.0883 45.2065 73.9545C45.2797 73.8198 45.4078 73.7225 45.5567 73.6876C49.2762 72.8179 61.2243 68.8038 64.357 67.3705C64.4872 67.3119 64.6359 67.306 64.7706 67.356C64.9053 67.4061 65.0132 67.5085 65.0728 67.6383C67.361 72.697 67.7739 74.732 68.6314 79.8741C68.9107 81.549 69.1471 83.4873 68.4167 85.2819C67.361 87.8728 64.755 89.2903 62.6187 90.0416ZM46.3875 74.5922C47.0522 76.4494 47.5885 77.9447 48.1255 79.4385C48.715 81.0821 49.3053 82.7242 50.064 84.8487C50.4713 85.9869 50.8909 87.1637 51.6992 88.0508C53.2672 89.7723 56.3979 90.361 60.0749 89.6246C63.7636 88.8851 66.5094 87.11 67.418 84.8758C68.042 83.3424 67.8346 81.6515 67.5679 80.0521C66.7561 75.1816 66.3516 73.1575 64.3089 68.5691C60.7202 70.091 50.4706 73.5366 46.3875 74.5922Z" fill="#B666E7"/>
<path d="M63.4803 68.7058C63.4514 68.716 63.4207 68.7245 63.389 68.7298C63.0953 68.7786 62.8177 68.5793 62.7693 68.2867C61.9565 63.3771 64.0916 58.5035 66.1556 53.7906C68.0659 49.4286 70.0412 44.9185 69.5911 40.4925C69.3492 38.1098 67.3954 32.7653 63.973 28.8604C61.4398 25.9706 58.62 24.1222 55.5932 23.3671C49.8985 21.9475 41.1692 22.567 35.5033 26.4986C30.1048 30.2445 26.3045 35.0427 24.8031 40.0101C23.4271 44.5622 23.8688 49.4852 26.0456 53.8745C28.0836 57.9845 31.5508 61.4955 36.0714 64.0285C36.6951 64.3774 37.3494 64.7144 37.9824 65.0403C39.3147 65.7256 40.692 66.4334 41.9205 67.3281C44.138 68.9442 45.805 71.1157 46.7428 73.6075C46.8477 73.886 46.7065 74.1966 46.4279 74.3015C46.1364 74.3959 45.8388 74.2652 45.7339 73.9866C44.8713 71.6923 43.3337 69.6909 41.2864 68.1994C40.1262 67.3538 38.7855 66.6644 37.4902 65.9985C36.8489 65.6686 36.1862 65.3276 35.545 64.9686C30.8351 62.3294 27.2169 58.6592 25.0812 54.354C22.782 49.719 22.3177 44.514 23.7728 39.6986C25.3434 34.4994 29.2922 29.497 34.8905 25.6136C40.8196 21.5001 49.9257 20.8444 55.8556 22.3227C59.1009 23.132 62.1043 25.0933 64.7859 28.1512C68.3631 32.2324 70.4095 37.8633 70.665 40.3839C71.1433 45.0911 69.1103 49.7339 67.144 54.2235C65.0499 59.0026 63.074 63.5176 63.8335 68.1108C63.8755 68.372 63.7218 68.6209 63.4803 68.7058Z" fill="#B666E7"/>
<path d="M58.3713 70.2305C58.3692 70.2312 58.3661 70.2323 58.364 70.2331C58.0822 70.3287 57.7759 70.1766 57.6813 69.8945L57.6562 69.8198C56.1589 65.4269 54.7636 60.7767 53.5094 56.0003C52.9908 54.0244 52.5285 52.0799 52.5028 50.1139C50.9381 50.2386 49.353 49.8567 48.1665 49.1803C47.9954 49.0828 47.8276 48.9783 47.6624 48.8682C47.5987 49.2246 47.5261 49.5818 47.4437 49.9378C46.9235 52.2048 45.9699 53.6186 44.5279 54.2603C44.1247 54.4392 43.7012 54.5441 43.2765 54.5995C44.0775 55.677 44.7815 56.7851 45.4212 57.8555C48.0433 62.2413 50.1637 66.9218 51.7252 71.7676C51.8167 72.0509 51.6659 72.3706 51.3778 72.4453C51.0946 72.5368 50.7907 72.3816 50.7002 72.0979C49.1638 67.3303 47.0765 62.7239 44.4968 58.4091C43.7539 57.1673 42.9237 55.8717 41.952 54.6455C41.7284 54.636 41.5098 54.6212 41.2978 54.6053C38.8644 54.4197 36.1004 54.0129 34.0537 52.4109C33.1112 51.6731 32.7302 50.7843 33.0068 49.9715C33.3168 49.0623 34.321 48.6268 35.1216 48.605C35.9399 48.5839 36.6628 48.9014 37.262 49.2137C39.3769 50.3174 41.0678 51.874 42.4749 53.5767C43.0395 53.5695 43.5926 53.4968 44.0904 53.2765C45.2012 52.7815 45.9543 51.6121 46.3931 49.6973C46.5138 49.1701 46.6145 48.6418 46.6944 48.1139C45.495 47.0316 44.4976 45.5407 43.6685 43.6022C43.0255 42.0969 42.2559 39.8359 42.994 37.5852C43.2286 36.8706 43.6858 36.4361 44.2469 36.3895C44.6744 36.3552 45.0187 36.5693 45.2411 36.7334C47.0191 38.0495 47.535 40.242 47.7671 41.7758C48.0627 43.7245 48.0879 45.6987 47.8435 47.6715C48.1183 47.8857 48.4034 48.0765 48.6992 48.245C49.7509 48.8446 51.1618 49.1765 52.5339 49.0384C52.5381 48.9778 52.5433 48.9168 52.5485 48.8558C52.7604 46.5036 53.7357 44.1358 55.2936 42.1882C55.5991 41.807 55.9876 41.4014 56.5488 41.2794C57.036 41.1741 57.4955 41.3002 57.8418 41.6353C58.4384 42.2106 58.571 43.2668 58.4399 44.0053C58.0507 46.2029 57.1646 47.8482 55.8041 48.8961C55.1313 49.4134 54.3698 49.7542 53.5764 49.9451C53.5734 51.8295 54.0165 53.6962 54.5502 55.7282C55.7971 60.4805 57.1847 65.1056 58.6751 69.4754L58.7006 69.5511C58.7975 69.8301 58.6489 70.1329 58.3713 70.2305ZM34.6775 49.769C34.3627 49.8797 34.1086 50.0838 34.0287 50.3183C33.8534 50.8323 34.5136 51.4003 34.7197 51.5609C36.4382 52.906 38.9134 53.3158 40.981 53.4968C39.7935 52.1945 38.4125 51.0276 36.7649 50.1679C36.2878 49.9193 35.7235 49.6667 35.1511 49.6812C34.9868 49.6857 34.825 49.7171 34.6775 49.769ZM53.6374 48.8161C54.1769 48.6484 54.6886 48.3954 55.1496 48.0408C56.2905 47.1629 57.0404 45.7406 57.3818 43.8161C57.4762 43.2831 57.3482 42.652 57.0975 42.4108C57.0328 42.3489 56.9493 42.2959 56.7789 42.3326C56.5445 42.3849 56.325 42.628 56.1378 42.8608C54.7399 44.6072 53.8549 46.7171 53.6374 48.8161ZM44.3141 37.4676C44.2295 37.4974 44.1035 37.6635 44.0198 37.9202C43.544 39.3702 43.7479 41.0415 44.6615 43.1776C45.2909 44.6506 46.0176 45.8365 46.8575 46.7542C46.9964 45.1409 46.9454 43.5283 46.7033 41.9365C46.3779 39.7977 45.7114 38.4201 44.6014 37.5986C44.4431 37.4814 44.3683 37.4602 44.3345 37.4628C44.3275 37.4629 44.3214 37.4651 44.3141 37.4676Z" fill="#B666E7"/>
<path d="M66.7864 20.4611C66.6058 20.5246 66.3973 20.489 66.2459 20.352C66.0299 20.1566 66.0086 19.8255 66.1973 19.6037L70.4573 14.5893C70.9084 14.0584 71.331 14.1058 71.5423 14.1823C71.7386 14.2524 71.8771 14.4055 71.9232 14.6026C72.0319 15.07 72.0371 15.0879 66.9963 20.3258C66.9361 20.3888 66.8638 20.4339 66.7864 20.4611Z" fill="#B666E7"/>
<path d="M29.0198 22.0448C28.8237 22.1138 28.5966 22.0649 28.4459 21.9034L23.7144 16.8121C23.5111 16.5936 23.5246 16.2526 23.7423 16.0508C23.9612 15.8486 24.3018 15.861 24.5037 16.0787L29.2355 21.1711C29.4374 21.3888 29.4253 21.7305 29.2075 21.9324C29.1509 21.9824 29.0879 22.0209 29.0198 22.0448Z" fill="#B666E7"/>
<path d="M16.1305 41.6494C16.0954 41.6617 16.0588 41.6699 16.0212 41.6751L9.69839 42.5024C9.52092 42.5253 8.97989 42.5962 8.68635 42.1671C8.56227 41.9858 8.54444 41.7636 8.6392 41.5714C8.83347 41.1807 8.92987 40.9832 15.9219 40.6013C16.2109 40.5855 16.4608 40.8014 16.488 41.0899C16.5105 41.3418 16.3596 41.5688 16.1305 41.6494Z" fill="#B666E7"/>
<path d="M16.5053 67.7568C16.3113 67.825 16.086 67.7779 15.9349 67.6188C15.7304 67.4031 15.7389 67.0614 15.956 66.8575L21.1034 61.9822C21.3201 61.7773 21.6607 61.7862 21.8656 62.0029C22.0702 62.2186 22.0616 62.5602 21.8446 62.7642L16.6972 67.6395C16.6406 67.693 16.5745 67.7325 16.5053 67.7568Z" fill="#B666E7"/>
<path d="M46.9541 15.6053C46.8942 15.6264 46.8297 15.6375 46.7629 15.6354C46.4659 15.6286 46.2297 15.3823 46.2372 15.0839L46.3887 8.63254C46.3956 8.33555 46.6419 8.09934 46.9403 8.1069C47.2372 8.11378 47.4735 8.36006 47.4659 8.65845L47.3154 15.1094C47.3081 15.3393 47.1594 15.5331 46.9541 15.6053Z" fill="#B666E7"/>
<path d="M82.1685 39.719C82.1045 39.7415 82.0366 39.7526 81.9645 39.749L75.1856 39.4309C74.8885 39.4171 74.658 39.1641 74.6729 38.8667C74.6867 38.5696 74.94 38.3402 75.2367 38.353L82.0157 38.671C82.3128 38.6848 82.5432 38.9378 82.5284 39.2353C82.5176 39.4617 82.3687 39.6486 82.1685 39.719Z" fill="#B666E7"/>
</g>
</svg>
