<svg width="24" height="24" viewBox="0 0 24 24" fill="none" xmlns="http://www.w3.org/2000/svg">
<path opacity="0.5" d="M18.2222 22H5.77778C5.34844 22 5 21.6169 5 21.1429C5 18.3066 7.093 16 9.66667 16H14.3333C16.907 16 19 18.3066 19 21.1429C19 21.6169 18.6516 22 18.2222 22Z" fill="white"/>
<path d="M18.8 7.2H18.4C18.4 5.28813 16.9648 3.73333 15.2 3.73333H12.8V2.86667C12.8 2.3874 12.4416 2 12 2C11.5584 2 11.2 2.3874 11.2 2.86667V3.73333H8.8C7.0352 3.73333 5.6 5.28813 5.6 7.2H5.2C4.5384 7.2 4 7.78327 4 8.5V10.2333C4 10.9501 4.5384 11.5333 5.2 11.5333H5.6C5.6 13.4452 7.0352 15 8.8 15H15.2C16.9648 15 18.4 13.4452 18.4 11.5333H18.8C19.4616 11.5333 20 10.9501 20 10.2333V8.5C20 7.78327 19.4616 7.2 18.8 7.2ZM10 10.6667C9.3376 10.6667 8.8 10.0843 8.8 9.36667C8.8 8.64907 9.3376 8.06667 10 8.06667C10.6624 8.06667 11.2 8.64907 11.2 9.36667C11.2 10.0843 10.6624 10.6667 10 10.6667ZM14 10.6667C13.3376 10.6667 12.8 10.0843 12.8 9.36667C12.8 8.64907 13.3376 8.06667 14 8.06667C14.6624 8.06667 15.2 8.64907 15.2 9.36667C15.2 10.0843 14.6624 10.6667 14 10.6667Z" fill="white"/>
</svg>
