<svg width="22" height="22" viewBox="0 0 22 22" fill="none" xmlns="http://www.w3.org/2000/svg">
<path d="M2.66667 3.08333C2.66667 1.9325 3.59917 1 4.75 1C5.90083 1 6.83333 1.9325 6.83333 3.08333C6.83333 4.23417 5.90083 5.16667 4.75 5.16667C3.59917 5.16667 2.66667 4.23417 2.66667 3.08333ZM6.83333 9.33333C6.3725 9.33333 6 9.70583 6 10.1667V13.5H4.33333C3.41417 13.5 2.66667 12.7525 2.66667 11.8333V9.33333C2.66667 8.41417 3.41417 7.66667 4.33333 7.66667H12.6667C13.1275 7.66667 13.5 7.29417 13.5 6.83333C13.5 6.3725 13.1275 6 12.6667 6H4.33333C2.495 6 1 7.495 1 9.33333V11.8333C1 13.0617 1.675 14.125 2.66667 14.7033V20.1667C2.66667 20.6275 3.03917 21 3.5 21C3.96083 21 4.33333 20.6275 4.33333 20.1667V15.1667H6V20.1667C6 20.6275 6.3725 21 6.83333 21C7.29417 21 7.66667 20.6275 7.66667 20.1667V10.1667C7.66667 9.70583 7.29417 9.33333 6.83333 9.33333ZM17.25 1H9.33333C8.8725 1 8.5 1.3725 8.5 1.83333C8.5 2.29417 8.8725 2.66667 9.33333 2.66667H17.25C18.3992 2.66667 19.3333 3.60083 19.3333 4.75V9.75C19.3333 10.8992 18.3992 11.8333 17.25 11.8333H10.1667C9.70583 11.8333 9.33333 12.2058 9.33333 12.6667C9.33333 13.1275 9.70583 13.5 10.1667 13.5H17.25C19.3175 13.5 21 11.8175 21 9.75V4.75C21 2.6825 19.3175 1 17.25 1Z" fill="url(#paint0_linear_2931_9760)" stroke="#F7F8FA" strokeWidth="0.4"/>
<defs>
<linearGradient id="paint0_linear_2931_9760" x1="11" y1="1" x2="11" y2="21" gradientUnits="userSpaceOnUse">
<stop stop-color="#3D348B"/>
<stop offset="1" stop-color="#7678ED"/>
</linearGradient>
</defs>
</svg>
