<svg width="22" height="22" viewBox="0 0 22 22" fill="none" xmlns="http://www.w3.org/2000/svg">
<path d="M3.5 3.875C3.5 2.83925 4.33925 2 5.375 2C6.41075 2 7.25 2.83925 7.25 3.875C7.25 4.91075 6.41075 5.75 5.375 5.75C4.33925 5.75 3.5 4.91075 3.5 3.875ZM7.25 9.5C6.83525 9.5 6.5 9.83525 6.5 10.25V13.25H5C4.17275 13.25 3.5 12.5773 3.5 11.75V9.5C3.5 8.67275 4.17275 8 5 8H12.5C12.9148 8 13.25 7.66475 13.25 7.25C13.25 6.83525 12.9148 6.5 12.5 6.5H5C3.3455 6.5 2 7.8455 2 9.5V11.75C2 12.8555 2.6075 13.8125 3.5 14.333V19.25C3.5 19.6647 3.83525 20 4.25 20C4.66475 20 5 19.6647 5 19.25V14.75H6.5V19.25C6.5 19.6647 6.83525 20 7.25 20C7.66475 20 8 19.6647 8 19.25V10.25C8 9.83525 7.66475 9.5 7.25 9.5ZM16.625 2H9.5C9.08525 2 8.75 2.33525 8.75 2.75C8.75 3.16475 9.08525 3.5 9.5 3.5H16.625C17.6593 3.5 18.5 4.34075 18.5 5.375V9.875C18.5 10.9093 17.6593 11.75 16.625 11.75H10.25C9.83525 11.75 9.5 12.0852 9.5 12.5C9.5 12.9148 9.83525 13.25 10.25 13.25H16.625C18.4858 13.25 20 11.7358 20 9.875V5.375C20 3.51425 18.4858 2 16.625 2Z" fill="url(#paint0_linear_2724_6488)" stroke="#FFF5F1" stroke-width="0.4"/>
<defs>
<linearGradient id="paint0_linear_2724_6488" x1="11" y1="-6.5" x2="11" y2="20" gradientUnits="userSpaceOnUse">
<stop stop-color="#3D348B"/>
<stop offset="1" stop-color="#7678ED"/>
</linearGradient>
</defs>
</svg>
