<svg width="22" height="22" viewBox="0 0 22 22" fill="none" xmlns="http://www.w3.org/2000/svg">
<path d="M11 6.41406V19.2474" stroke="url(#paint0_linear_2692_6725)" strokeWidth="1.33333" strokeLinecap="round" strokeLinejoin="round"/>
<path d="M2.7526 16.5C2.50949 16.5 2.27633 16.4034 2.10442 16.2315C1.93251 16.0596 1.83594 15.8264 1.83594 15.5833V3.66667C1.83594 3.42355 1.93251 3.19039 2.10442 3.01849C2.27633 2.84658 2.50949 2.75 2.7526 2.75H7.33594C8.3084 2.75 9.24103 3.13631 9.92866 3.82394C10.6163 4.51158 11.0026 5.44421 11.0026 6.41667C11.0026 5.44421 11.3889 4.51158 12.0765 3.82394C12.7642 3.13631 13.6968 2.75 14.6693 2.75H19.2526C19.4957 2.75 19.7289 2.84658 19.9008 3.01849C20.0727 3.19039 20.1693 3.42355 20.1693 3.66667V15.5833C20.1693 15.8264 20.0727 16.0596 19.9008 16.2315C19.7289 16.4034 19.4957 16.5 19.2526 16.5H13.7526C13.0233 16.5 12.3238 16.7897 11.8081 17.3055C11.2923 17.8212 11.0026 18.5207 11.0026 19.25C11.0026 18.5207 10.7129 17.8212 10.1971 17.3055C9.68142 16.7897 8.98195 16.5 8.2526 16.5H2.7526Z" stroke="url(#paint1_linear_2692_6725)" strokeWidth="1.33333" strokeLinecap="round" strokeLinejoin="round"/>
<defs>
<linearGradient id="paint0_linear_2692_6725" x1="11.5" y1="6.41406" x2="11.5" y2="19.2474" gradientUnits="userSpaceOnUse">
<stop stopColor="#3D348B"/>
<stop offset="1" stopColor="#7678ED"/>
</linearGradient>
<linearGradient id="paint1_linear_2692_6725" x1="11.0026" y1="2.75" x2="11.0026" y2="19.25" gradientUnits="userSpaceOnUse">
<stop stopColor="#3D348B"/>
<stop offset="1" stopColor="#7678ED"/>
</linearGradient>
</defs>
</svg>
