<svg width="26" height="26" viewBox="0 0 26 26" fill="none" xmlns="http://www.w3.org/2000/svg">
<path fillRule="evenodd" clipRule="evenodd" d="M11.1945 5.40876L10.3021 3.80974C9.08604 1.63073 6.03022 1.37339 4.11491 3.28869C2.96403 4.43957 2.06852 5.84945 2.00944 7.408C1.93286 9.42795 2.28328 12.638 4.5 16L10.4082 10.0132C11.6766 8.74483 11.9998 6.8518 11.1945 5.40876ZM15.9872 15.5923L10.0004 21.5C13.3625 23.7167 16.5725 24.0676 18.5924 23.991C20.151 23.9319 21.5609 23.0364 22.7117 21.8855C24.627 19.9702 24.3697 16.9144 22.1907 15.6983L20.5917 14.8059C19.1486 14.0006 17.2556 14.3239 15.9872 15.5923Z" fill="white"/>
<path opacity="0.5" d="M11.8463 14.1537C9.16911 11.4766 10.5 9.5 10.5 9.5L4.5 16C5.13585 16.9644 6.01295 18.013 7 19C7.98705 19.987 9.03562 20.8641 10 21.5L16.5 15.5C16.5 15.5 14.5234 16.8308 11.8463 14.1537Z" fill="white"/>
</svg>
