<svg width="26" height="26" viewBox="0 0 26 26" fill="none" xmlns="http://www.w3.org/2000/svg">
<path d="M15.4004 3.79129C13.861 3.06957 12.1359 3.06957 10.5964 3.79129L5.94533 5.97183C6.79243 6.06324 7.56688 6.59685 7.92641 7.43575C8.45671 8.6731 7.88352 10.1061 6.64618 10.6363L5.48086 11.1358C4.9018 11.3839 4.57319 11.5273 4.35134 11.6411C4.35012 11.6588 4.34898 11.677 4.3479 11.6959L10.5965 14.6254C12.1359 15.3471 13.8611 15.3471 15.4005 14.6254L22.6492 11.227C24.226 10.4878 24.226 7.92891 22.6493 7.18969L15.4004 3.79129Z" fill="#3E358C"/>
<path d="M6.00626 9.14285C6.41871 8.96608 6.60977 8.48843 6.43301 8.07598C6.25624 7.66353 5.77859 7.47247 5.36614 7.64924L4.16215 8.16523C3.55822 8.42403 3.04641 8.64336 2.64478 8.86931C2.21742 9.10973 1.84959 9.39189 1.57407 9.80973C1.29855 10.2276 1.1841 10.6768 1.13146 11.1643C1.08199 11.6225 1.08201 12.1793 1.08203 12.8363V15.9794C1.08203 16.4281 1.4458 16.7919 1.89453 16.7919C2.34327 16.7919 2.70703 16.4281 2.70703 15.9794V12.8784C2.70703 12.168 2.70813 11.6994 2.74707 11.3388C2.78389 10.9977 2.84836 10.8291 2.93069 10.7043C3.01301 10.5794 3.14255 10.4538 3.44153 10.2856C3.7577 10.1077 4.18794 9.92213 4.84094 9.64227L6.00626 9.14285Z" fill="#3E358C"/>
<path opacity="0.5" d="M5.41797 12.1955L10.5991 14.6245C12.1386 15.3462 13.8637 15.3462 15.4031 14.6245L20.5846 12.1953V18.0098C20.5846 19.1018 20.0392 20.1242 19.0839 20.6533C17.4931 21.5342 14.947 22.7489 13.0013 22.7489C11.0556 22.7489 8.50948 21.5342 6.91875 20.6533C5.96343 20.1243 5.41797 19.1018 5.41797 18.0098V12.1955Z" fill="#3E358C"/>
</svg>
