<svg width="26" height="26" viewBox="0 0 26 26" fill="none" xmlns="http://www.w3.org/2000/svg">
<path fill-rule="evenodd" clip-rule="evenodd" d="M2.16797 7.18829C2.16797 4.41565 4.41565 2.16797 7.18829 2.16797C9.96094 2.16797 12.2086 4.41565 12.2086 7.18829C12.2086 9.96094 9.96094 12.2086 7.18829 12.2086C4.41565 12.2086 2.16797 9.96094 2.16797 7.18829Z" fill="white"/>
<path opacity="0.5" fill-rule="evenodd" clip-rule="evenodd" d="M13.793 18.8133C13.793 16.0406 16.0406 13.793 18.8133 13.793C21.5859 13.793 23.8336 16.0406 23.8336 18.8133C23.8336 21.5859 21.5859 23.8336 18.8133 23.8336C16.0406 23.8336 13.793 21.5859 13.793 18.8133Z" fill="white"/>
<path d="M2.16797 18.957C2.16797 16.6589 2.16797 15.5099 2.8819 14.796C3.59582 14.082 4.74487 14.082 7.04297 14.082C9.34107 14.082 10.4901 14.082 11.204 14.796C11.918 15.5099 11.918 16.6589 11.918 18.957C11.918 21.2551 11.918 22.4042 11.204 23.1181C10.4901 23.832 9.34107 23.832 7.04297 23.832C4.74487 23.832 3.59582 23.832 2.8819 23.1181C2.16797 22.4042 2.16797 21.2551 2.16797 18.957Z" fill="white"/>
<path opacity="0.5" d="M14.082 7.04297C14.082 4.74487 14.082 3.59582 14.796 2.8819C15.5099 2.16797 16.6589 2.16797 18.957 2.16797C21.2551 2.16797 22.4042 2.16797 23.1181 2.8819C23.832 3.59582 23.832 4.74487 23.832 7.04297C23.832 9.34107 23.832 10.4901 23.1181 11.204C22.4042 11.918 21.2551 11.918 18.957 11.918C16.6589 11.918 15.5099 11.918 14.796 11.204C14.082 10.4901 14.082 9.34107 14.082 7.04297Z" fill="white"/>
</svg>
