<svg width="30" height="30" viewBox="0 0 30 30" fill="none" xmlns="http://www.w3.org/2000/svg">
<path d="M11.9279 16.6789C11.8256 16.6789 9.68079 16.6796 8.69157 16.6786C8.1823 16.6783 8.00061 16.4956 8.00061 15.9841C7.9998 14.6701 7.9998 13.3562 8.00061 12.0422C8.00094 11.5372 8.19305 11.3445 8.6958 11.3441C9.68502 11.3435 11.8181 11.3438 11.9279 11.3438V8.48321C11.9285 7.19168 12.1594 5.95539 12.8168 4.82344C13.4899 3.66483 14.4693 2.87119 15.7246 2.41229C16.5285 2.11817 17.3631 2.00085 18.2162 2.0002C19.2835 1.99955 20.3509 2.00053 21.4186 2.00248C21.8774 2.00313 22.0809 2.2056 22.0819 2.66677C22.0838 3.90272 22.0838 5.13868 22.0819 6.37431C22.0812 6.84036 21.8862 7.02755 21.417 7.03275C20.5421 7.04218 19.6665 7.03633 18.7925 7.07143C17.9098 7.07143 17.4454 7.50172 17.4454 8.41366C17.4243 9.37824 17.4366 10.3438 17.4366 11.3435C17.5194 11.3435 20.0315 11.3432 21.2057 11.3435C21.739 11.3435 21.9214 11.5265 21.9214 12.0617C21.9214 13.3685 21.921 14.6757 21.9201 15.9825C21.9197 16.5099 21.7485 16.6783 21.2118 16.6786C20.0377 16.6793 17.5353 16.6789 17.4259 16.6789V27.2559C17.4259 27.8198 17.2481 27.9995 16.6907 27.9995H12.613C12.1203 27.9995 11.9282 27.8084 11.9282 27.3167L11.9279 16.6789Z" fill="#3D6AD6"/>
</svg>
