<svg width="44" height="44" viewBox="0 0 44 44" fill="none" xmlns="http://www.w3.org/2000/svg">
<path d="M7.33177 25.6688C6.98484 25.67 6.6447 25.5727 6.35085 25.3883C6.05701 25.2039 5.82153 24.9398 5.67178 24.6269C5.52203 24.3139 5.46414 23.9649 5.50486 23.6204C5.54557 23.2758 5.6832 22.9499 5.90177 22.6805L24.0518 3.9805C24.1879 3.82335 24.3734 3.71716 24.5779 3.67935C24.7824 3.64154 24.9936 3.67436 25.1769 3.77243C25.3603 3.8705 25.5048 4.02798 25.5869 4.21904C25.6689 4.41009 25.6836 4.62336 25.6284 4.82384L22.1084 15.8605C22.0046 16.1383 21.9698 16.4371 22.0069 16.7313C22.0439 17.0256 22.1518 17.3064 22.3213 17.5498C22.4907 17.7932 22.7167 17.9918 22.9798 18.1286C23.2429 18.2655 23.5352 18.3365 23.8318 18.3355H36.6651C37.012 18.3343 37.3522 18.4316 37.646 18.616C37.9399 18.8005 38.1753 19.0645 38.3251 19.3775C38.4749 19.6904 38.5327 20.0394 38.492 20.384C38.4513 20.7285 38.3137 21.0544 38.0951 21.3238L19.9451 40.0238C19.809 40.181 19.6234 40.2872 19.419 40.325C19.2145 40.3628 19.0033 40.33 18.8199 40.2319C18.6366 40.1338 18.492 39.9764 18.41 39.7853C18.3279 39.5943 18.3133 39.381 18.3684 39.1805L21.8884 28.1438C21.9922 27.866 22.0271 27.5672 21.99 27.273C21.953 26.9788 21.8451 26.6979 21.6756 26.4546C21.5062 26.2112 21.2802 26.0126 21.0171 25.8757C20.754 25.7389 20.4617 25.6679 20.1651 25.6688H7.33177Z" stroke="url(#paint0_linear_2692_7002)" strokeWidth="2" strokeLinecap="round" strokeLinejoin="round"/>
<defs>
<linearGradient id="paint0_linear_2692_7002" x1="21.9984" y1="3.66406" x2="21.9984" y2="40.3403" gradientUnits="userSpaceOnUse">
<stop stopColor="#3D348B"/>
<stop offset="1" stopColor="#7678ED"/>
</linearGradient>
</defs>
</svg>
