<svg width="30" height="30" viewBox="0 0 30 30" fill="none" xmlns="http://www.w3.org/2000/svg">
<path d="M7.20624 17.923L6.23147 21.562L2.66869 21.6373C1.60394 19.6625 1 17.403 1 15.0019C1 12.68 1.56467 10.4904 2.56559 8.5625H2.56636L5.73823 9.14402L7.1277 12.2969C6.83689 13.1447 6.67838 14.0548 6.67838 15.0019C6.67849 16.0297 6.86467 17.0145 7.20624 17.923Z" fill="#FBBB00"/>
<path d="M28.7541 12.3828C28.9149 13.2298 28.9988 14.1046 28.9988 14.9985C28.9988 16.001 28.8934 16.9788 28.6926 17.922C28.011 21.1317 26.23 23.9344 23.7627 25.9177L23.762 25.917L19.7668 25.7131L19.2014 22.1834C20.8385 21.2233 22.1179 19.7207 22.7919 17.922H15.3047V12.3828H28.7541Z" fill="#518EF8"/>
<path d="M23.7662 25.9191L23.767 25.9199C21.3675 27.8486 18.3193 29.0026 15.0012 29.0026C9.66893 29.0026 5.03293 26.0222 2.66797 21.6362L7.20552 17.9219C8.38797 21.0777 11.4322 23.3242 15.0012 23.3242C16.5352 23.3242 17.9724 22.9095 19.2056 22.1855L23.7662 25.9191Z" fill="#28B446"/>
<path d="M23.9401 4.2235L19.4041 7.93708C18.1278 7.1393 16.6191 6.67843 15.0027 6.67843C11.353 6.67843 8.25179 9.02797 7.12857 12.2969L2.56717 8.56257H2.56641C4.89674 4.06965 9.59121 1 15.0027 1C18.4001 1 21.5152 2.21018 23.9401 4.2235Z" fill="#F14336"/>
</svg>
