<svg width="44" height="44" viewBox="0 0 44 44" fill="none" xmlns="http://www.w3.org/2000/svg">
<path d="M40.3359 12.0391C40.3853 12.0391 40.4335 12.0442 40.4804 12.0527C40.484 12.0534 40.4876 12.054 40.4912 12.0547C40.6044 12.077 40.7082 12.1239 40.7988 12.1885C40.8304 12.2111 40.8608 12.2359 40.8896 12.2637C40.8971 12.2709 40.9039 12.2786 40.9111 12.2861C40.9389 12.3151 40.9646 12.3451 40.9872 12.377C41.08 12.5075 41.1357 12.6664 41.1357 12.8389V23.8389C41.1357 24.2807 40.7777 24.6386 40.3359 24.6387C39.894 24.6387 39.5361 24.2807 39.5361 23.8389V14.7686L25.3173 28.9883C25.005 29.3006 24.4979 29.3005 24.1855 28.9883L15.5839 20.3867L4.23334 31.7383C3.92101 32.0503 3.41482 32.0502 3.10248 31.7383C2.79006 31.4259 2.79006 30.9189 3.10248 30.6064L15.0185 18.6895C15.3309 18.3771 15.8379 18.3772 16.1503 18.6895L24.7509 27.29L38.4033 13.6387H29.3359C28.894 13.6387 28.5361 13.2807 28.5361 12.8389C28.5361 12.397 28.894 12.0391 29.3359 12.0391H40.3359Z" fill="url(#paint0_linear_2692_6882)"/>
<defs>
<linearGradient id="paint0_linear_2692_6882" x1="22.0019" y1="12.0391" x2="22.0019" y2="31.9723" gradientUnits="userSpaceOnUse">
<stop stopColor="#3D348B"/>
<stop offset="1" stopColor="#7678ED"/>
</linearGradient>
</defs>
</svg>
