<svg width="30" height="30" viewBox="0 0 30 30" fill="none" xmlns="http://www.w3.org/2000/svg">
<path d="M26.994 27L27 26.999V18.197C27 13.891 26.073 10.574 21.039 10.574C18.619 10.574 16.995 11.902 16.332 13.161H16.262V10.976H11.489V26.999H16.459V19.065C16.459 16.976 16.855 14.956 19.442 14.956C21.991 14.956 22.029 17.34 22.029 19.199V27H26.994ZM3.396 10.977H8.372V27H3.396V10.977ZM5.882 3C4.291 3 3 4.291 3 5.882C3 7.473 4.291 8.791 5.882 8.791C7.473 8.791 8.764 7.473 8.764 5.882C8.76347 5.11781 8.45966 4.38507 7.9193 3.8447C7.37893 3.30434 6.64619 3.00053 5.882 3Z" fill="#0077B5"/>
</svg>
