<svg width="80" height="80" viewBox="0 0 80 80" fill="none" xmlns="http://www.w3.org/2000/svg">
<rect width="80" height="80" rx="22" fill="url(#paint0_linear_376_1698)"/>
<path d="M52 34.75H50.6667V29.5C50.6667 23.7092 45.8827 19 40 19C34.1173 19 29.3333 23.7092 29.3333 29.5V34.75H28C26.9396 34.7514 25.923 35.1667 25.1731 35.9048C24.4233 36.6429 24.0014 37.6436 24 38.6875V57.0625C24 59.2342 25.7956 61 28 61H52C54.2044 61 56 59.2342 56 57.0625V38.6875C56 36.5157 54.2044 34.75 52 34.75ZM32.8889 29.5C32.8889 25.6395 36.0782 22.5 40 22.5C43.9218 22.5 47.1111 25.6395 47.1111 29.5V34.75H32.8889V29.5ZM41.7778 48.2635V52.25C41.7778 52.7141 41.5905 53.1592 41.2571 53.4874C40.9237 53.8156 40.4715 54 40 54C39.5285 54 39.0763 53.8156 38.7429 53.4874C38.4095 53.1592 38.2222 52.7141 38.2222 52.25V48.2635C37.1644 47.6562 36.4444 46.5397 36.4444 45.25C36.4444 43.3197 38.0391 41.75 40 41.75C41.9609 41.75 43.5556 43.3197 43.5556 45.25C43.5556 46.5397 42.8356 47.6562 41.7778 48.2635Z" fill="white"/>
<defs>
<linearGradient id="paint0_linear_376_1698" x1="40" y1="0" x2="40" y2="80" gradientUnits="userSpaceOnUse">
<stop stop-color="#3D348B"/>
<stop offset="1" stop-color="#7678ED"/>
</linearGradient>
</defs>
</svg>
