<svg width="24" height="24" viewBox="0 0 24 24" fill="none" xmlns="http://www.w3.org/2000/svg">
<path opacity="0.5" d="M12 5.21297C11.3163 5.21297 10.9426 5.05166 10.2823 4.87446C8.9381 4.51377 8.04921 3.76331 7 3.48644C6.11349 3.25251 4.95877 3.1339 3.9824 3.07389C2.8863 3.00652 2 3.89863 2 4.9968V16.1426C2 17.2535 2.90605 18.1524 4.01486 18.2218C4.98428 18.2824 6.12329 18.401 7 18.6323C7.48596 18.7606 8.21615 19.0635 8.87295 19.3582C9.87752 19.809 10.7139 20.3916 12 20.3916C13.2861 20.3916 14.1225 19.809 15.127 19.3582C15.7838 19.0635 16.514 18.7606 17 18.6323C17.8767 18.401 19.0157 18.2824 19.9851 18.2218C21.094 18.1524 22 17.2535 22 16.1426V4.9968C22 3.89863 21.1137 3.00652 20.0176 3.07389C19.0412 3.1339 17.8865 3.25251 17 3.48644C15.9508 3.76331 15.0619 4.51377 13.7177 4.87446C13.0574 5.05166 12.6837 5.21297 12 5.21297Z" fill="white"/>
<path d="M4.27257 12.8183C4.37303 12.4164 4.78023 12.1721 5.18208 12.2726L9.18208 13.2726C9.58393 13.373 9.82825 13.7802 9.72778 14.1821C9.62732 14.5839 9.22012 14.8282 8.81828 14.7278L4.81828 13.7278C4.41643 13.6273 4.17211 13.2201 4.27257 12.8183Z" fill="white"/>
<path d="M5.18208 8.27257C4.78023 8.17211 4.37303 8.41643 4.27257 8.81828C4.17211 9.22012 4.41643 9.62732 4.81828 9.72778L8.81828 10.7278C9.22012 10.8282 9.62732 10.5839 9.72778 10.1821C9.82825 9.78023 9.58393 9.37303 9.18208 9.27257L5.18208 8.27257Z" fill="white"/>
<path d="M19.7273 12.8183C19.6269 12.4164 19.2197 12.1721 18.8178 12.2726L14.8178 13.2726C14.416 13.373 14.1717 13.7802 14.2721 14.1821C14.3726 14.5839 14.7798 14.8282 15.1816 14.7278L19.1816 13.7278C19.5835 13.6273 19.8278 13.2201 19.7273 12.8183Z" fill="white"/>
<path d="M18.8178 8.27257C19.2197 8.17211 19.6269 8.41643 19.7273 8.81828C19.8278 9.22012 19.5835 9.62732 19.1816 9.72778L15.1816 10.7278C14.7798 10.8282 14.3726 10.5839 14.2721 10.1821C14.1717 9.78023 14.416 9.37303 14.8178 9.27257L18.8178 8.27257Z" fill="white"/>
</svg>
