<svg width="30" height="30" viewBox="0 0 30 30" fill="none" xmlns="http://www.w3.org/2000/svg">
<path d="M26.4513 25.8842L24.0203 23.4974C24.5925 22.3267 24.7235 20.9957 24.3899 19.7396C24.0564 18.4836 23.2798 17.3834 22.1976 16.6337C21.1153 15.884 19.7971 15.533 18.476 15.6428C17.1549 15.7525 15.916 16.316 14.9784 17.2336C14.0407 18.1512 13.4648 19.3637 13.3523 20.6568C13.2398 21.9499 13.5981 23.2403 14.3638 24.2998C15.1295 25.3593 16.2532 26.1197 17.5364 26.4465C18.8195 26.7733 20.1794 26.6455 21.3755 26.0856L23.8133 28.4651C23.9866 28.6348 24.1923 28.7694 24.4187 28.8613C24.6451 28.9532 24.8878 29.0006 25.1329 29.0006C25.378 29.0007 25.6207 28.9536 25.8472 28.8618C26.0737 28.7701 26.2795 28.6356 26.4528 28.466C26.6262 28.2964 26.7638 28.0951 26.8576 27.8735C26.9515 27.6519 26.9999 27.4143 26.9999 27.1744C27 26.9345 26.9518 26.6969 26.8581 26.4752C26.7644 26.2536 26.627 26.0521 26.4538 25.8824L26.4513 25.8842ZM15.8746 24.1551C15.2645 23.5578 14.8489 22.7968 14.6806 21.9683C14.5123 21.1399 14.5987 20.2812 14.929 19.5008C15.2593 18.7204 15.8185 18.0534 16.536 17.5841C17.2536 17.1148 18.0972 16.8644 18.9601 16.8644C19.8231 16.8644 20.6667 17.1148 21.3842 17.5841C22.1017 18.0534 22.661 18.7204 22.9912 19.5008C23.3215 20.2812 23.4079 21.1399 23.2396 21.9683C23.0713 22.7968 22.6558 23.5578 22.0456 24.1551C21.2267 24.9551 20.1171 25.4044 18.9601 25.4044C17.8032 25.4044 16.6935 24.9551 15.8746 24.1551ZM25.5674 27.6024C25.4507 27.7153 25.2933 27.7786 25.1292 27.7786C24.9651 27.7786 24.8077 27.7153 24.691 27.6024L22.4589 25.4224C22.7863 25.17 23.0822 24.8806 23.3402 24.5603L25.5674 26.7482C25.6252 26.8044 25.671 26.8712 25.7023 26.9448C25.7336 27.0184 25.7497 27.0974 25.7497 27.1771C25.7497 27.2569 25.7336 27.3358 25.7023 27.4094C25.671 27.483 25.6252 27.5498 25.5674 27.606V27.6024Z" fill="black"/>
<path d="M15.2199 26.6256H7.11664C6.62069 26.6256 6.14505 26.4327 5.79436 26.0895C5.44367 25.7462 5.24666 25.2806 5.24666 24.7952V4.05067C5.24666 3.56522 5.44367 3.09965 5.79436 2.75639C6.14505 2.41312 6.62069 2.22028 7.11664 2.22028H17.9501C18.08 2.22061 18.2095 2.23431 18.3365 2.26116V5.88107C18.3365 6.36652 18.5336 6.83209 18.8843 7.17536C19.2349 7.51862 19.7106 7.71147 20.2065 7.71147H23.8985C23.9293 7.84175 23.9454 7.97495 23.9465 8.10866V16.2533C23.9465 16.4151 24.0122 16.5703 24.1291 16.6848C24.246 16.7992 24.4045 16.8635 24.5698 16.8635C24.7351 16.8635 24.8937 16.7992 25.0106 16.6848C25.1275 16.5703 25.1932 16.4151 25.1932 16.2533V8.10866C25.194 7.70916 25.1143 7.31342 24.9585 6.94414C24.8028 6.57487 24.5741 6.23931 24.2856 5.95673L20.1592 1.89874C19.8703 1.61295 19.5262 1.3863 19.1469 1.232C18.7677 1.0777 18.3608 0.998838 17.9501 1.00001H7.11664C6.29036 1.00098 5.49821 1.3227 4.91394 1.8946C4.32967 2.4665 4.00099 3.24189 4 4.05067V24.7952C4.00099 25.604 4.32967 26.3793 4.91394 26.9512C5.49821 27.5231 6.29036 27.8449 7.11664 27.8458H15.2199C15.3852 27.8458 15.5438 27.7816 15.6607 27.6671C15.7776 27.5527 15.8432 27.3975 15.8432 27.2357C15.8432 27.0739 15.7776 26.9187 15.6607 26.8043C15.5438 26.6899 15.3852 26.6256 15.2199 26.6256ZM23.0701 6.4912H20.2065C20.0412 6.4912 19.8827 6.42692 19.7658 6.3125C19.6489 6.19808 19.5832 6.04289 19.5832 5.88107V3.06226L23.0701 6.4912Z" fill="black"/>
<path d="M8.36307 7.71245H15.2197C15.385 7.71245 15.5435 7.64817 15.6604 7.53375C15.7773 7.41933 15.843 7.26414 15.843 7.10232C15.843 6.9405 15.7773 6.78531 15.6604 6.67089C15.5435 6.55647 15.385 6.49219 15.2197 6.49219H8.36307C8.19776 6.49219 8.03921 6.55647 7.92231 6.67089C7.80542 6.78531 7.73975 6.9405 7.73975 7.10232C7.73975 7.26414 7.80542 7.41933 7.92231 7.53375C8.03921 7.64817 8.19776 7.71245 8.36307 7.71245ZM20.8296 10.153H10.2331C10.0677 10.153 9.9092 10.2173 9.7923 10.3317C9.6754 10.4461 9.60973 10.6013 9.60973 10.7631C9.60973 10.9249 9.6754 11.0801 9.7923 11.1945C9.9092 11.309 10.0677 11.3732 10.2331 11.3732H20.8296C20.995 11.3732 21.1535 11.309 21.2704 11.1945C21.3873 11.0801 21.453 10.9249 21.453 10.7631C21.453 10.6013 21.3873 10.4461 21.2704 10.3317C21.1535 10.2173 20.995 10.153 20.8296 10.153ZM21.453 13.8138C21.453 13.652 21.3873 13.4968 21.2704 13.3823C21.1535 13.2679 20.995 13.2036 20.8296 13.2036H8.36307C8.19776 13.2036 8.03921 13.2679 7.92231 13.3823C7.80542 13.4968 7.73975 13.652 7.73975 13.8138C7.73975 13.9756 7.80542 14.1308 7.92231 14.2452C8.03921 14.3596 8.19776 14.4239 8.36307 14.4239H20.8296C20.995 14.4239 21.1535 14.3596 21.2704 14.2452C21.3873 14.1308 21.453 13.9756 21.453 13.8138ZM12.7264 16.8644C12.7264 16.7026 12.6607 16.5474 12.5438 16.433C12.4269 16.3186 12.2684 16.2543 12.103 16.2543H8.36307C8.19776 16.2543 8.03921 16.3186 7.92231 16.433C7.80542 16.5474 7.73975 16.7026 7.73975 16.8644C7.73975 17.0263 7.80542 17.1814 7.92231 17.2959C8.03921 17.4103 8.19776 17.4746 8.36307 17.4746H12.103C12.2684 17.4746 12.4269 17.4103 12.5438 17.2959C12.6607 17.1814 12.7264 17.0263 12.7264 16.8644ZM8.36307 20.5252H10.8564C11.0217 20.5252 11.1803 20.4609 11.2971 20.3465C11.414 20.2321 11.4797 20.0769 11.4797 19.9151C11.4797 19.7533 11.414 19.5981 11.2971 19.4837C11.1803 19.3692 11.0217 19.305 10.8564 19.305H8.36307C8.19776 19.305 8.03921 19.3692 7.92231 19.4837C7.80542 19.5981 7.73975 19.7533 7.73975 19.9151C7.73975 20.0769 7.80542 20.2321 7.92231 20.3465C8.03921 20.4609 8.19776 20.5252 8.36307 20.5252ZM8.36307 23.5759H11.4797C11.645 23.5759 11.8036 23.5116 11.9205 23.3972C12.0374 23.2828 12.103 23.1276 12.103 22.9658C12.103 22.8039 12.0374 22.6488 11.9205 22.5343C11.8036 22.4199 11.645 22.3556 11.4797 22.3556H8.36307C8.19776 22.3556 8.03921 22.4199 7.92231 22.5343C7.80542 22.6488 7.73975 22.8039 7.73975 22.9658C7.73975 23.1276 7.80542 23.2828 7.92231 23.3972C8.03921 23.5116 8.19776 23.5759 8.36307 23.5759ZM18.9597 22.9658C18.4637 22.9658 17.9881 22.7729 17.6374 22.4296C17.2867 22.0864 17.0897 21.6208 17.0897 21.1354C17.0897 20.9735 17.024 20.8184 16.9071 20.7039C16.7902 20.5895 16.6317 20.5252 16.4663 20.5252C16.301 20.5252 16.1425 20.5895 16.0256 20.7039C15.9087 20.8184 15.843 20.9735 15.843 21.1354C15.844 21.9442 16.1727 22.7195 16.7569 23.2914C17.3412 23.8633 18.1334 24.1851 18.9597 24.186C19.125 24.186 19.2835 24.1217 19.4004 24.0073C19.5173 23.8929 19.583 23.7377 19.583 23.5759C19.583 23.4141 19.5173 23.2589 19.4004 23.1445C19.2835 23.03 19.125 22.9658 18.9597 22.9658Z" fill="black"/>
</svg>
