<svg width="30" height="30" viewBox="0 0 30 30" fill="none" xmlns="http://www.w3.org/2000/svg">
<path d="M26.9993 20.9686V24.5816C27.0006 24.917 26.9318 25.249 26.7971 25.5563C26.6625 25.8636 26.465 26.1395 26.2174 26.3662C25.9698 26.593 25.6774 26.7656 25.359 26.873C25.0407 26.9805 24.7033 27.0204 24.3686 26.9902C20.6554 26.5875 17.0885 25.3212 13.9547 23.293C11.0391 21.4439 8.56712 18.9769 6.7144 16.067C4.67503 12.9252 3.40589 9.34809 3.00979 5.62554C2.97964 5.29251 3.0193 4.95685 3.12624 4.63995C3.23319 4.32305 3.40508 4.03185 3.63097 3.78488C3.85686 3.53791 4.1318 3.34059 4.43829 3.20548C4.74478 3.07037 5.0761 3.00043 5.41115 3.00012H9.03129C9.61692 2.99436 10.1847 3.20133 10.6287 3.58245C11.0727 3.96356 11.3628 4.49281 11.4447 5.07155C11.5975 6.22778 11.8809 7.36305 12.2894 8.4557C12.4518 8.88675 12.4869 9.35522 12.3907 9.8056C12.2944 10.256 12.0708 10.6694 11.7464 10.9968L10.2139 12.5263C11.9317 15.5414 14.4331 18.0378 17.4542 19.7522L18.9867 18.2228C19.3148 17.899 19.729 17.6758 20.1803 17.5798C20.6315 17.4837 21.1009 17.5188 21.5328 17.6808C22.6277 18.0885 23.7652 18.3713 24.9237 18.5238C25.5099 18.6064 26.0452 18.901 26.4279 19.3518C26.8106 19.8026 27.0139 20.378 26.9993 20.9686Z" stroke="url(#paint0_linear_2724_6962)" strokeWidth="2" strokeLinecap="round" strokeLinejoin="round"/>
<defs>
<linearGradient id="paint0_linear_2724_6962" x1="15" y1="3" x2="15" y2="27" gradientUnits="userSpaceOnUse">
<stop stopColor="#3D348B"/>
<stop offset="1" stopColor="#7678ED"/>
</linearGradient>
</defs>
</svg>
