<svg width="30" height="30" viewBox="0 0 30 30" fill="none" xmlns="http://www.w3.org/2000/svg">
<path d="M9.875 24.9981C12.2607 26.2219 15.0051 26.5534 17.6136 25.9328C20.2221 25.3122 22.5232 23.7804 24.1022 21.6133C25.6812 19.4463 26.4343 16.7865 26.2257 14.1133C26.0172 11.4401 24.8607 8.92932 22.9648 7.03335C21.0688 5.13738 18.558 3.98092 15.8848 3.77238C13.2116 3.56383 10.5518 4.31691 8.38477 5.89591C6.21771 7.47491 4.68586 9.77599 4.06528 12.3845C3.44469 14.993 3.77618 17.7374 5 20.1231L2.5 27.4981L9.875 24.9981Z" stroke="url(#paint0_linear_2724_6940)" strokeWidth="2" strokeLinecap="round" strokeLinejoin="round"/>
<defs>
<linearGradient id="paint0_linear_2724_6940" x1="14.3799" y1="3.73828" x2="14.3799" y2="27.4981" gradientUnits="userSpaceOnUse">
<stop stopColor="#3D348B"/>
<stop offset="1" stopColor="#7678ED"/>
</linearGradient>
</defs>
</svg>
