<svg width="37" height="37" viewBox="0 0 37 37" fill="none" xmlns="http://www.w3.org/2000/svg">
<path d="M17.8438 0.726562C18.1688 7.42482 18.6057 11.4868 20.1494 14.0039C22.9946 13.0965 26.1594 10.3854 31.0674 5.93164C26.7429 10.6973 24.0618 13.8198 23.0791 16.6016C25.7409 17.8739 29.8446 18.1861 36.2725 18.498C29.6533 18.8193 25.4982 19.1388 22.8447 20.5088C23.5324 23.3806 26.0952 26.5622 30.6025 31.5293C25.6214 27.0092 22.5953 24.2843 19.9043 23.418C18.5568 25.9603 18.151 29.937 17.8438 36.2686C17.5364 29.9344 17.3304 25.9572 16.2266 23.415C13.6345 24.2395 10.6677 26.7703 5.93555 31.0645C10.3805 26.1661 12.9346 23.1585 13.6641 20.501C11.269 19.1381 7.3362 18.8186 0.730469 18.498C7.11241 18.1884 10.9991 17.8784 13.415 16.6289C12.3977 14.051 9.73093 11.0933 5.46973 6.39746C10.1639 10.6571 13.2633 13.1813 16.0137 14.0264C17.3039 11.511 17.5177 7.44507 17.8438 0.726562Z" fill="url(#paint0_linear_2705_6184)"/>
<defs>
<linearGradient id="paint0_linear_2705_6184" x1="18.5142" y1="0.726563" x2="18.5142" y2="36.2686" gradientUnits="userSpaceOnUse">
<stop stopColor="white" stop-opacity="0"/>
<stop offset="0.1" stopColor="#3057EF"/>
<stop offset="0.9" stopColor="#B966E7"/>
<stop offset="1" stopColor="white" stop-opacity="0"/>
</linearGradient>
</defs>
</svg>
