<svg width="37" height="37" viewBox="0 0 37 37" fill="none" xmlns="http://www.w3.org/2000/svg">
<path d="M17.8438 0.728516C18.1688 7.42677 18.6057 11.4888 20.1494 14.0059C22.9946 13.0985 26.1594 10.3873 31.0674 5.93359C26.7429 10.6992 24.0618 13.8217 23.0791 16.6035C25.7409 17.8758 29.8446 18.1881 36.2725 18.5C29.6533 18.8212 25.4982 19.1408 22.8447 20.5107C23.5324 23.3826 26.0952 26.5642 30.6025 31.5312C25.6214 27.0111 22.5953 24.2862 19.9043 23.4199C18.5568 25.9622 18.151 29.939 17.8438 36.2705C17.5364 29.9364 17.3304 25.9592 16.2266 23.417C13.6345 24.2415 10.6677 26.7722 5.93555 31.0664C10.3805 26.1681 12.9346 23.1605 13.6641 20.5029C11.269 19.14 7.3362 18.8206 0.730469 18.5C7.11241 18.1903 10.9991 17.8804 13.415 16.6309C12.3977 14.0529 9.73093 11.0953 5.46973 6.39941C10.1639 10.6591 13.2633 13.1833 16.0137 14.0283C17.3039 11.513 17.5177 7.44703 17.8438 0.728516Z" fill="url(#paint0_linear_452_529)"/>
<defs>
<linearGradient id="paint0_linear_452_529" x1="18.5142" y1="0.728516" x2="18.5142" y2="36.2705" gradientUnits="userSpaceOnUse">
<stop stop-color="white" stop-opacity="0"/>
<stop offset="0.1" stop-color="#3057EF"/>
<stop offset="0.9" stop-color="#B966E7"/>
<stop offset="1" stop-color="white" stop-opacity="0"/>
</linearGradient>
</defs>
</svg>
