<svg width="24" height="24" viewBox="0 0 24 24" fill="none" xmlns="http://www.w3.org/2000/svg">
<path d="M22.5058 2.0005C22.4361 1.99953 22.3669 2.01316 22.3028 2.0405L1.30315 11.0404C1.21221 11.0793 1.13486 11.1444 1.08091 11.2273C1.02695 11.3102 0.998808 11.4073 1.00004 11.5062C1.00127 11.6052 1.03182 11.7015 1.08782 11.783C1.14383 11.8646 1.22277 11.9277 1.31465 11.9644L6.09907 13.8784L8.02553 19.6588C8.05253 19.7396 8.09974 19.8122 8.16268 19.8697C8.22562 19.9272 8.30221 19.9676 8.38517 19.9871C8.46812 20.0066 8.5547 20.0047 8.63667 19.9813C8.71864 19.958 8.79328 19.9141 8.85352 19.8538L12.1235 16.5843L18.1709 21.8763C18.2365 21.9337 18.316 21.973 18.4015 21.9902C18.4871 22.0074 18.5756 22.0019 18.6583 21.9743C18.7411 21.9467 18.8152 21.8979 18.8732 21.8329C18.9313 21.7678 18.9713 21.6886 18.9893 21.6033L22.9893 2.60299C23.0045 2.53066 23.0035 2.45585 22.9864 2.38395C22.9692 2.31205 22.9363 2.24485 22.8901 2.18718C22.8438 2.12952 22.7854 2.08282 22.7189 2.05045C22.6525 2.01808 22.5797 2.00085 22.5058 2V2.0005ZM21.8123 3.33948L18.1864 20.5623L11.2515 14.4939L16.3364 9.87041C16.4345 9.78127 16.4931 9.65683 16.4995 9.52445C16.5059 9.39207 16.4594 9.26257 16.3704 9.16442C16.2812 9.06633 16.1568 9.00766 16.0244 9.00128C15.892 8.99491 15.7625 9.04136 15.6644 9.13042L10.1645 14.1304C10.1124 14.1777 10.0708 14.2356 10.0426 14.3001C10.0144 14.3646 10.0001 14.4344 10.0007 14.5048C10.0013 14.5752 10.0168 14.6447 10.0462 14.7088C10.0755 14.7728 10.118 14.8299 10.171 14.8763L11.3695 15.9243L8.71902 18.5743L6.97505 13.3424C6.9519 13.2735 6.91401 13.2104 6.86401 13.1577C6.81401 13.1049 6.75311 13.0637 6.68556 13.0369L2.80712 11.4849L21.8123 3.33948Z" fill="white" stroke="white" stroke-width="0.3"/>
</svg>
