<svg width="60" height="60" viewBox="0 0 60 60" fill="none" xmlns="http://www.w3.org/2000/svg">
<path d="M18.4775 11.167C22.6628 8.11749 27.8001 6.66267 32.9629 7.06543C38.1255 7.46829 42.9741 9.70262 46.6357 13.3643C50.2974 17.0259 52.5317 21.8745 52.9346 27.0371C53.3373 32.1999 51.8825 37.3372 48.833 41.5225C45.7835 45.7077 41.3395 48.6666 36.3018 49.8652C31.2639 51.0638 25.9631 50.4232 21.3555 48.0596L20.9785 47.8662L20.5781 48.002L7.59766 52.4014L11.998 39.4219L12.1338 39.0215L11.9404 38.6445C9.57683 34.0369 8.93621 28.7361 10.1348 23.6982C11.3334 18.6605 14.2923 14.2165 18.4775 11.167Z" stroke="url(#paint0_linear_2692_7158)" strokeWidth="2"/>
<defs>
<linearGradient id="paint0_linear_2692_7158" x1="30" y1="6" x2="30" y2="54" gradientUnits="userSpaceOnUse">
<stop stopColor="#3D348B"/>
<stop offset="1" stopColor="#7678ED"/>
</linearGradient>
</defs>
</svg>
